# Blender v3.3.1 OBJ File: 'bed.blend'
# www.blender.org
o Circle
v 0.000000 6.404238 2.277467
v -0.438953 6.375416 2.277467
v -0.861038 6.290057 2.277467
v -1.250033 6.151442 2.277467
v -1.590990 5.964898 2.277467
v -1.870807 5.737593 2.277467
v -2.078729 5.478263 2.277467
v -2.206767 5.196873 2.277467
v -2.250000 4.904238 2.277467
v 2.250000 4.904238 2.277467
v 2.206767 5.196873 2.277467
v 2.078729 5.478263 2.277467
v 1.870807 5.737593 2.277467
v 1.590990 5.964898 2.277467
v 1.250033 6.151442 2.277467
v 0.861038 6.290057 2.277467
v 0.438953 6.375416 2.277467
v -0.014963 6.403606 1.725703
v -0.453916 6.374784 1.725703
v -0.876001 6.289425 1.725703
v -1.264996 6.150810 1.725703
v -1.605953 5.964266 1.725703
v -1.885770 5.736961 1.725703
v -2.093692 5.477631 1.725703
v -2.221730 5.196241 1.725703
v -2.264963 4.903606 1.725703
v 2.235037 4.903606 1.725703
v 2.191804 5.196241 1.725703
v 2.063766 5.477631 1.725703
v 1.855844 5.736961 1.725703
v 1.576027 5.964266 1.725703
v 1.235070 6.150810 1.725703
v 0.846075 6.289425 1.725703
v 0.423990 6.374784 1.725703
v -1.750000 2.000000 -5.850145
v -1.750000 0.000000 -5.850145
v -1.750000 2.000000 -5.350145
v -1.750000 0.000000 -5.350145
v -2.250000 2.000000 -5.850145
v -2.250000 0.000000 -5.850145
v -2.250000 2.000000 -5.350145
v -2.250000 0.000000 -5.350145
v -1.750000 2.000000 1.750000
v -1.750000 0.000000 1.750000
v -1.750000 2.000000 2.250000
v -1.750000 0.000000 2.250000
v -2.250000 2.000000 1.750000
v -2.250000 0.000000 1.750000
v -2.250000 2.000000 2.250000
v -2.250000 0.000000 2.250000
v -1.750000 4.882871 1.750000
v -1.750000 4.882871 2.250000
v -2.250000 4.882871 1.750000
v -2.250000 4.882871 2.250000
v 2.250000 2.000000 -5.903970
v 2.250000 0.000000 -5.903970
v 2.250000 2.000000 -5.403970
v 2.250000 0.000000 -5.403970
v 1.750000 2.000000 -5.903970
v 1.750000 0.000000 -5.903970
v 1.750000 2.000000 -5.403970
v 1.750000 0.000000 -5.403970
v 2.250000 2.000000 1.750000
v 2.250000 0.000000 1.750000
v 2.250000 2.000000 2.250000
v 2.250000 0.000000 2.250000
v 1.750000 2.000000 1.750000
v 1.750000 0.000000 1.750000
v 1.750000 2.000000 2.250000
v 1.750000 0.000000 2.250000
v 2.250000 4.893154 1.750000
v 2.250000 4.893154 2.250000
v 1.750000 4.893154 1.750000
v 1.750000 4.893154 2.250000
v -2.216653 1.561066 2.274297
v -2.216653 1.961066 2.274297
v -2.216653 1.561065 -5.895160
v -2.216653 1.961066 -5.895160
v 2.216653 1.561066 2.274297
v 2.216653 1.961066 2.274297
v 2.216653 1.561065 -5.895160
v 2.216653 1.961066 -5.895160
v -2.000000 4.491279 2.275378
v -2.000000 4.891279 2.275378
v -2.000000 4.491279 1.875377
v -2.000000 4.891279 1.875377
v 2.000000 4.491279 2.275378
v 2.000000 4.891279 2.275378
v 2.000000 4.491279 1.875377
v 2.000000 4.891279 1.875377
v -0.956338 1.755232 2.282284
v -0.956338 4.555233 2.282284
v -0.956338 1.755232 1.882284
v -0.956338 4.555233 1.882284
v -0.556338 1.755232 2.282284
v -0.556338 4.555233 2.282284
v -0.556338 1.755232 1.882284
v -0.556338 4.555233 1.882284
v 0.510648 1.755232 2.282284
v 0.510648 4.555233 2.282284
v 0.510648 1.755232 1.882284
v 0.510648 4.555233 1.882284
v 0.910648 1.755232 2.282284
v 0.910648 4.555233 2.282284
v 0.910648 1.755232 1.882284
v 0.910648 4.555233 1.882284
vt 0.000000 0.000000
vt 0.000000 0.000000
vt 0.000000 0.000000
vt 0.000000 0.000000
vt 0.000000 0.000000
vt 0.000000 0.000000
vt 0.000000 0.000000
vt 0.000000 0.000000
vt 0.000000 0.000000
vt 0.000000 0.000000
vt 0.000000 0.000000
vt 0.000000 0.000000
vt 0.000000 0.000000
vt 0.000000 0.000000
vt 0.000000 0.000000
vt 0.000000 0.000000
vt 0.000000 0.000000
vt 0.000000 0.000000
vt 0.000000 0.000000
vt 0.000000 0.000000
vt 0.000000 0.000000
vt 0.000000 0.000000
vt 0.000000 0.000000
vt 0.000000 0.000000
vt 0.000000 0.000000
vt 0.000000 0.000000
vt 0.000000 0.000000
vt 0.000000 0.000000
vt 0.000000 0.000000
vt 0.000000 0.000000
vt 0.000000 0.000000
vt 0.000000 0.000000
vt 0.000000 0.000000
vt 0.875000 0.500000
vt 0.625000 0.750000
vt 0.625000 0.500000
vt 0.375000 1.000000
vt 0.375000 0.750000
vt 0.625000 0.000000
vt 0.375000 0.250000
vt 0.375000 0.000000
vt 0.375000 0.500000
vt 0.125000 0.750000
vt 0.125000 0.500000
vt 0.625000 0.250000
vt 0.000000 0.000000
vt 0.875000 0.750000
vt 0.625000 1.000000
vt 0.625000 0.250000
vt 0.625000 0.000000
vt 0.625000 0.250000
vt 0.625000 0.750000
vt 0.375000 1.000000
vt 0.375000 0.750000
vt 0.625000 0.000000
vt 0.375000 0.250000
vt 0.375000 0.000000
vt 0.375000 0.500000
vt 0.125000 0.750000
vt 0.125000 0.500000
vt 0.625000 0.500000
vt 0.875000 0.500000
vt 0.625000 0.750000
vt 0.625000 0.500000
vt 0.625000 1.000000
vt 0.625000 1.000000
vt 0.875000 0.750000
vt 0.875000 0.500000
vt 0.625000 0.750000
vt 0.625000 0.500000
vt 0.375000 1.000000
vt 0.375000 0.750000
vt 0.625000 0.000000
vt 0.375000 0.250000
vt 0.375000 0.000000
vt 0.375000 0.500000
vt 0.125000 0.750000
vt 0.125000 0.500000
vt 0.625000 0.250000
vt 0.875000 0.750000
vt 0.625000 1.000000
vt 0.625000 0.250000
vt 0.625000 0.500000
vt 0.625000 0.500000
vt 0.625000 0.750000
vt 0.375000 1.000000
vt 0.375000 0.750000
vt 0.625000 0.000000
vt 0.375000 0.250000
vt 0.375000 0.000000
vt 0.375000 0.500000
vt 0.125000 0.750000
vt 0.125000 0.500000
vt 0.875000 0.500000
vt 0.625000 0.750000
vt 0.625000 1.000000
vt 0.625000 1.000000
vt 0.625000 0.250000
vt 0.625000 0.000000
vt 0.375000 0.250000
vt 0.375000 0.000000
vt 0.625000 0.250000
vt 0.375000 0.500000
vt 0.625000 0.500000
vt 0.375000 0.750000
vt 0.625000 0.750000
vt 0.375000 1.000000
vt 0.125000 0.750000
vt 0.125000 0.500000
vt 0.875000 0.500000
vt 0.625000 0.000000
vt 0.375000 0.250000
vt 0.375000 0.000000
vt 0.625000 0.250000
vt 0.375000 0.500000
vt 0.625000 0.500000
vt 0.375000 0.750000
vt 0.625000 0.750000
vt 0.375000 1.000000
vt 0.125000 0.750000
vt 0.125000 0.500000
vt 0.875000 0.500000
vt 0.625000 0.000000
vt 0.375000 0.250000
vt 0.375000 0.000000
vt 0.625000 0.250000
vt 0.375000 0.500000
vt 0.625000 0.750000
vt 0.375000 0.750000
vt 0.375000 1.000000
vt 0.125000 0.750000
vt 0.125000 0.500000
vt 0.875000 0.500000
vt 0.625000 0.500000
vt 0.625000 0.000000
vt 0.375000 0.250000
vt 0.375000 0.000000
vt 0.625000 0.250000
vt 0.375000 0.500000
vt 0.625000 0.750000
vt 0.375000 0.750000
vt 0.375000 1.000000
vt 0.125000 0.750000
vt 0.125000 0.500000
vt 0.875000 0.500000
vt 0.625000 0.500000
vt 0.875000 0.750000
vt 0.625000 0.000000
vt 0.625000 1.000000
vt 0.875000 0.750000
vt 0.625000 1.000000
vt 0.875000 0.750000
vt 0.625000 1.000000
vt 0.875000 0.750000
vt 0.625000 1.000000
vt 0.875000 0.750000
vn -0.0655 0.9979 0.0006
vn 0.0655 0.9978 -0.0029
vn 0.9889 0.1461 -0.0270
vn -0.1982 0.9801 0.0043
vn 0.9099 0.4140 -0.0252
vn -0.3357 0.9420 0.0080
vn 0.7800 0.6254 -0.0219
vn -0.4799 0.8772 0.0120
vn 0.6304 0.7761 -0.0180
vn -0.6304 0.7761 0.0162
vn 0.4799 0.8772 -0.0140
vn -0.7800 0.6254 0.0204
vn 0.3356 0.9419 -0.0102
vn -0.9099 0.4140 0.0242
vn 0.1982 0.9801 -0.0065
vn -0.9889 0.1461 0.0267
vn 0.0000 1.0000 0.0000
vn 0.0000 0.0000 1.0000
vn -1.0000 0.0000 0.0000
vn 0.0000 -1.0000 0.0000
vn 1.0000 0.0000 0.0000
vn 0.0000 0.0000 -1.0000
vn 0.9099 0.4140 -0.0251
s off
f 2/1/1 18/2/1 19/3/1
f 1/4/2 34/5/2 18/2/2
f 11/6/3 27/7/3 28/8/3
f 3/9/4 19/3/4 20/10/4
f 12/11/5 28/8/5 29/12/5
f 4/13/6 20/10/6 21/14/6
f 13/15/7 29/12/7 30/16/7
f 5/17/8 21/14/8 22/18/8
f 14/19/9 30/16/9 31/20/9
f 6/21/10 22/18/10 23/22/10
f 15/23/11 31/20/11 32/24/11
f 7/25/12 23/22/12 24/26/12
f 16/27/13 32/24/13 33/28/13
f 8/29/14 24/26/14 25/30/14
f 17/31/15 33/28/15 34/5/15
f 9/32/16 25/30/16 26/33/16
f 39/34/17 37/35/17 35/36/17
f 37/35/18 42/37/18 38/38/18
f 41/39/19 40/40/19 42/41/19
f 36/42/20 42/43/20 40/44/20
f 35/36/21 38/38/21 36/42/21
f 39/45/22 36/42/22 40/40/22
f 2/1/1 1/4/1 18/2/1
f 1/4/2 17/31/2 34/5/2
f 11/6/3 10/46/3 27/7/3
f 3/9/4 2/1/4 19/3/4
f 12/11/23 11/6/23 28/8/23
f 4/13/6 3/9/6 20/10/6
f 13/15/7 12/11/7 29/12/7
f 5/17/8 4/13/8 21/14/8
f 14/19/9 13/15/9 30/16/9
f 6/21/10 5/17/10 22/18/10
f 15/23/11 14/19/11 31/20/11
f 7/25/12 6/21/12 23/22/12
f 16/27/13 15/23/13 32/24/13
f 8/29/14 7/25/14 24/26/14
f 17/31/15 16/27/15 33/28/15
f 9/32/16 8/29/16 25/30/16
f 39/34/17 41/47/17 37/35/17
f 37/35/18 41/48/18 42/37/18
f 41/39/19 39/45/19 40/40/19
f 36/42/20 38/38/20 42/43/20
f 35/36/21 37/35/21 38/38/21
f 39/45/22 35/36/22 36/42/22
f 47/49/19 54/50/19 53/51/19
f 45/52/18 50/53/18 46/54/18
f 49/55/19 48/56/19 50/57/19
f 44/58/20 50/59/20 48/60/20
f 43/61/21 46/54/21 44/58/21
f 47/49/22 44/58/22 48/56/22
f 53/62/17 52/63/17 51/64/17
f 43/61/21 52/63/21 45/52/21
f 47/49/22 51/64/22 43/61/22
f 45/52/18 54/65/18 49/66/18
f 47/49/19 49/55/19 54/50/19
f 45/52/18 49/66/18 50/53/18
f 49/55/19 47/49/19 48/56/19
f 44/58/20 46/54/20 50/59/20
f 43/61/21 45/52/21 46/54/21
f 47/49/22 43/61/22 44/58/22
f 53/62/17 54/67/17 52/63/17
f 43/61/21 51/64/21 52/63/21
f 47/49/22 53/51/22 51/64/22
f 45/52/18 52/63/18 54/65/18
f 59/68/17 57/69/17 55/70/17
f 57/69/18 62/71/18 58/72/18
f 61/73/19 60/74/19 62/75/19
f 56/76/20 62/77/20 60/78/20
f 55/70/21 58/72/21 56/76/21
f 59/79/22 56/76/22 60/74/22
f 59/68/17 61/80/17 57/69/17
f 57/69/18 61/81/18 62/71/18
f 61/73/19 59/79/19 60/74/19
f 56/76/20 58/72/20 62/77/20
f 55/70/21 57/69/21 58/72/21
f 59/79/22 55/70/22 56/76/22
f 67/82/22 71/83/22 63/84/22
f 65/85/18 70/86/18 66/87/18
f 69/88/19 68/89/19 70/90/19
f 64/91/20 70/92/20 68/93/20
f 63/84/21 66/87/21 64/91/21
f 67/82/22 64/91/22 68/89/22
f 73/94/17 72/95/17 71/83/17
f 65/85/18 74/96/18 69/97/18
f 69/88/19 73/98/19 67/82/19
f 63/84/21 72/95/21 65/85/21
f 76/99/19 77/100/19 75/101/19
f 78/102/22 81/103/22 77/100/22
f 82/104/21 79/105/21 81/103/21
f 80/106/18 75/107/18 79/105/18
f 81/103/20 75/108/20 77/109/20
f 78/110/17 80/106/17 82/104/17
f 84/111/19 85/112/19 83/113/19
f 86/114/22 89/115/22 85/112/22
f 90/116/21 87/117/21 89/115/21
f 88/118/18 83/119/18 87/117/18
f 89/115/20 83/120/20 85/121/20
f 86/122/17 88/118/17 90/116/17
f 92/123/19 93/124/19 91/125/19
f 94/126/22 97/127/22 93/124/22
f 97/127/21 96/128/21 95/129/21
f 96/128/18 91/130/18 95/129/18
f 97/127/20 91/131/20 93/132/20
f 94/133/17 96/128/17 98/134/17
f 100/135/19 101/136/19 99/137/19
f 102/138/22 105/139/22 101/136/22
f 105/139/21 104/140/21 103/141/21
f 104/140/18 99/142/18 103/141/18
f 105/139/20 99/143/20 101/144/20
f 102/145/17 104/140/17 106/146/17
f 67/82/22 73/98/22 71/83/22
f 65/85/18 69/97/18 70/86/18
f 69/88/19 67/82/19 68/89/19
f 64/91/20 66/87/20 70/92/20
f 63/84/21 65/85/21 66/87/21
f 67/82/22 63/84/22 64/91/22
f 73/94/17 74/147/17 72/95/17
f 65/85/18 72/95/18 74/96/18
f 69/88/19 74/148/19 73/98/19
f 63/84/21 71/83/21 72/95/21
f 76/99/19 78/102/19 77/100/19
f 78/102/22 82/104/22 81/103/22
f 82/104/21 80/106/21 79/105/21
f 80/106/18 76/149/18 75/107/18
f 81/103/20 79/105/20 75/108/20
f 78/110/17 76/150/17 80/106/17
f 84/111/19 86/114/19 85/112/19
f 86/114/22 90/116/22 89/115/22
f 90/116/21 88/118/21 87/117/21
f 88/118/18 84/151/18 83/119/18
f 89/115/20 87/117/20 83/120/20
f 86/122/17 84/152/17 88/118/17
f 92/123/19 94/126/19 93/124/19
f 94/126/22 98/134/22 97/127/22
f 97/127/21 98/134/21 96/128/21
f 96/128/18 92/153/18 91/130/18
f 97/127/20 95/129/20 91/131/20
f 94/133/17 92/154/17 96/128/17
f 100/135/19 102/138/19 101/136/19
f 102/138/22 106/146/22 105/139/22
f 105/139/21 106/146/21 104/140/21
f 104/140/18 100/155/18 99/142/18
f 105/139/20 103/141/20 99/143/20
f 102/145/17 100/156/17 104/140/17
