# Blender v3.3.1 OBJ File: ''
# www.blender.org
o Cylinder
v 0.000000 -1.000000 -1.000000
v 0.000000 1.000000 -1.000000
v 0.195090 -1.000000 -0.980785
v 0.195090 1.000000 -0.980785
v 0.382683 -1.000000 -0.923880
v 0.382683 1.000000 -0.923880
v 0.555570 -1.000000 -0.831470
v 0.555570 1.000000 -0.831470
v 0.707107 -1.000000 -0.707107
v 0.707107 1.000000 -0.707107
v 0.831470 -1.000000 -0.555570
v 0.831470 1.000000 -0.555570
v 0.923880 -1.000000 -0.382683
v 0.923880 1.000000 -0.382683
v 0.980785 -1.000000 -0.195090
v 0.980785 1.000000 -0.195090
v 1.000000 -1.000000 0.000000
v 1.000000 1.000000 0.000000
v 0.980785 -1.000000 0.195090
v 0.980785 1.000000 0.195090
v 0.923880 -1.000000 0.382683
v 0.923880 1.000000 0.382683
v 0.831470 -1.000000 0.555570
v 0.831470 1.000000 0.555570
v 0.707107 -1.000000 0.707107
v 0.707107 1.000000 0.707107
v 0.555570 -1.000000 0.831470
v 0.555570 1.000000 0.831470
v 0.382683 -1.000000 0.923880
v 0.382683 1.000000 0.923880
v 0.195090 -1.000000 0.980785
v 0.195090 1.000000 0.980785
v 0.000000 -1.000000 1.000000
v 0.000000 1.000000 1.000000
v -0.195090 -1.000000 0.980785
v -0.195090 1.000000 0.980785
v -0.382683 -1.000000 0.923880
v -0.382683 1.000000 0.923880
v -0.555570 -1.000000 0.831470
v -0.555570 1.000000 0.831470
v -0.707107 -1.000000 0.707107
v -0.707107 1.000000 0.707107
v -0.831470 -1.000000 0.555570
v -0.831470 1.000000 0.555570
v -0.923880 -1.000000 0.382683
v -0.923880 1.000000 0.382683
v -0.980785 -1.000000 0.195090
v -0.980785 1.000000 0.195090
v -1.000000 -1.000000 0.000000
v -1.000000 1.000000 0.000000
v -0.980785 -1.000000 -0.195090
v -0.980785 1.000000 -0.195090
v -0.923880 -1.000000 -0.382683
v -0.923880 1.000000 -0.382683
v -0.831470 -1.000000 -0.555570
v -0.831470 1.000000 -0.555570
v -0.707107 -1.000000 -0.707107
v -0.707107 1.000000 -0.707107
v -0.555570 -1.000000 -0.831470
v -0.555570 1.000000 -0.831470
v -0.382683 -1.000000 -0.923880
v -0.382683 1.000000 -0.923880
v -0.195090 -1.000000 -0.980785
v -0.195090 1.000000 -0.980785
v 0.000000 1.326902 -0.815599
v 0.159115 1.326902 -0.799927
v 0.312116 1.326902 -0.753515
v 0.453123 1.326902 -0.678146
v 0.576716 1.326902 -0.576716
v 0.678146 1.326902 -0.453123
v 0.753515 1.326902 -0.312116
v 0.799927 1.326902 -0.159115
v 0.815599 1.326902 -0.000000
v 0.799927 1.326902 0.159115
v 0.753515 1.326902 0.312116
v 0.678146 1.326902 0.453123
v 0.576716 1.326902 0.576716
v 0.453123 1.326902 0.678146
v 0.312116 1.326902 0.753515
v 0.159115 1.326902 0.799927
v 0.000000 1.326902 0.815599
v -0.159115 1.326902 0.799927
v -0.312116 1.326902 0.753515
v -0.453123 1.326902 0.678146
v -0.576716 1.326902 0.576716
v -0.678146 1.326902 0.453123
v -0.753515 1.326902 0.312116
v -0.799927 1.326902 0.159115
v -0.815599 1.326902 -0.000000
v -0.799927 1.326902 -0.159115
v -0.753515 1.326902 -0.312116
v -0.678146 1.326902 -0.453123
v -0.576716 1.326902 -0.576716
v -0.453123 1.326902 -0.678146
v -0.312116 1.326902 -0.753515
v -0.159115 1.326902 -0.799927
vt 1.000000 1.000000
vt 0.968750 0.500000
vt 1.000000 0.500000
vt 0.968750 1.000000
vt 0.937500 0.500000
vt 0.937500 1.000000
vt 0.906250 0.500000
vt 0.906250 1.000000
vt 0.875000 0.500000
vt 0.875000 1.000000
vt 0.843750 0.500000
vt 0.843750 1.000000
vt 0.812500 0.500000
vt 0.812500 1.000000
vt 0.781250 0.500000
vt 0.781250 1.000000
vt 0.750000 0.500000
vt 0.750000 1.000000
vt 0.718750 0.500000
vt 0.718750 1.000000
vt 0.687500 0.500000
vt 0.687500 1.000000
vt 0.656250 0.500000
vt 0.656250 1.000000
vt 0.625000 0.500000
vt 0.625000 1.000000
vt 0.593750 0.500000
vt 0.593750 1.000000
vt 0.562500 0.500000
vt 0.562500 1.000000
vt 0.531250 0.500000
vt 0.531250 1.000000
vt 0.500000 0.500000
vt 0.500000 1.000000
vt 0.468750 0.500000
vt 0.468750 1.000000
vt 0.437500 0.500000
vt 0.437500 1.000000
vt 0.406250 0.500000
vt 0.406250 1.000000
vt 0.375000 0.500000
vt 0.375000 1.000000
vt 0.343750 0.500000
vt 0.343750 1.000000
vt 0.312500 0.500000
vt 0.312500 1.000000
vt 0.281250 0.500000
vt 0.281250 1.000000
vt 0.250000 0.500000
vt 0.250000 1.000000
vt 0.218750 0.500000
vt 0.218750 1.000000
vt 0.187500 0.500000
vt 0.187500 1.000000
vt 0.156250 0.500000
vt 0.156250 1.000000
vt 0.125000 0.500000
vt 0.125000 1.000000
vt 0.093750 0.500000
vt 0.093750 1.000000
vt 0.062500 0.500000
vt 0.531250 1.000000
vt 0.062500 1.000000
vt 0.031250 0.500000
vt 0.031250 1.000000
vt 0.000000 0.500000
vt 0.796822 0.014612
vt 0.514612 0.203178
vt 0.703178 0.485388
vt 0.158156 0.028269
vt 0.471731 0.158156
vt 0.341844 0.471731
vt 0.250000 1.000000
vt 0.937500 1.000000
vt 0.656250 1.000000
vt 0.375000 1.000000
vt 0.125000 1.000000
vt 0.093750 1.000000
vt 0.781250 1.000000
vt 0.500000 1.000000
vt 0.218750 1.000000
vt 0.906250 1.000000
vt 0.625000 1.000000
vt 0.343750 1.000000
vt 0.062500 1.000000
vt 0.750000 1.000000
vt 0.468750 1.000000
vt 0.187500 1.000000
vt 0.875000 1.000000
vt 0.593750 1.000000
vt 0.312500 1.000000
vt 0.031250 1.000000
vt 0.718750 1.000000
vt 0.437500 1.000000
vt 0.156250 1.000000
vt 0.843750 1.000000
vt 0.562500 1.000000
vt 0.281250 1.000000
vt 1.000000 1.000000
vt 0.968750 1.000000
vt 0.000000 1.000000
vt 0.000000 1.000000
vt 0.687500 1.000000
vt 0.406250 1.000000
vt 0.812500 1.000000
vt 0.750000 0.490000
vt 0.796822 0.485388
vt 0.841844 0.471731
vt 0.883337 0.449553
vt 0.919706 0.419706
vt 0.949553 0.383337
vt 0.971731 0.341844
vt 0.985388 0.296822
vt 0.990000 0.250000
vt 0.985388 0.203178
vt 0.971731 0.158156
vt 0.949553 0.116663
vt 0.919706 0.080294
vt 0.883337 0.050447
vt 0.841844 0.028269
vt 0.750000 0.010000
vt 0.703178 0.014612
vt 0.658156 0.028269
vt 0.616663 0.050447
vt 0.580294 0.080294
vt 0.550447 0.116663
vt 0.528269 0.158156
vt 0.510000 0.250000
vt 0.514612 0.296822
vt 0.528269 0.341844
vt 0.550447 0.383337
vt 0.580294 0.419706
vt 0.616663 0.449553
vt 0.658156 0.471731
vt 0.296822 0.485388
vt 0.250000 0.490000
vt 0.203178 0.485388
vt 0.158156 0.471731
vt 0.116663 0.449553
vt 0.028269 0.341844
vt 0.080294 0.419706
vt 0.050447 0.383337
vt 0.014612 0.296822
vt 0.028269 0.158156
vt 0.010000 0.250000
vt 0.014612 0.203178
vt 0.050447 0.116663
vt 0.080294 0.080294
vt 0.116663 0.050447
vt 0.203178 0.014612
vt 0.341844 0.028269
vt 0.250000 0.010000
vt 0.296822 0.014612
vt 0.383337 0.050447
vt 0.419706 0.080294
vt 0.449553 0.116663
vt 0.485388 0.203178
vt 0.490000 0.250000
vt 0.485388 0.296822
vt 0.471731 0.341844
vt 0.449553 0.383337
vt 0.419706 0.419706
vt 0.383337 0.449553
vn 0.0980 0.0000 -0.9952
vn 0.2903 0.0000 -0.9569
vn 0.4714 0.0000 -0.8819
vn 0.6344 0.0000 -0.7730
vn 0.7730 0.0000 -0.6344
vn 0.8819 0.0000 -0.4714
vn 0.9569 0.0000 -0.2903
vn 0.9952 0.0000 -0.0980
vn 0.9952 0.0000 0.0980
vn 0.9569 0.0000 0.2903
vn 0.8819 0.0000 0.4714
vn 0.7730 0.0000 0.6344
vn 0.6344 0.0000 0.7730
vn 0.4714 0.0000 0.8819
vn 0.2903 0.0000 0.9569
vn 0.0980 0.0000 0.9952
vn -0.0980 0.0000 0.9952
vn -0.2903 0.0000 0.9569
vn -0.4714 0.0000 0.8819
vn -0.6344 0.0000 0.7730
vn -0.7730 0.0000 0.6344
vn -0.8819 0.0000 0.4714
vn -0.9569 0.0000 0.2903
vn -0.9952 0.0000 0.0980
vn -0.9952 0.0000 -0.0980
vn -0.9569 0.0000 -0.2903
vn -0.8819 0.0000 -0.4714
vn -0.7730 0.0000 -0.6344
vn -0.6344 0.0000 -0.7730
vn -0.4714 0.0000 -0.8819
vn 0.2531 0.4895 0.8344
vn -0.2903 0.0000 -0.9569
vn -0.0980 0.0000 -0.9952
vn 0.0000 -1.0000 0.0000
vn 0.0000 1.0000 0.0000
vn -0.8678 0.4895 0.0855
vn 0.2531 0.4895 -0.8344
vn 0.7690 0.4895 0.4111
vn -0.5532 0.4895 0.6741
vn -0.5532 0.4895 -0.6741
vn 0.8344 0.4895 -0.2531
vn 0.0855 0.4895 0.8678
vn -0.8678 0.4895 -0.0855
vn 0.4111 0.4895 -0.7690
vn 0.6741 0.4895 0.5532
vn -0.6741 0.4895 0.5532
vn -0.4111 0.4895 -0.7690
vn 0.8678 0.4895 -0.0855
vn -0.0855 0.4895 0.8678
vn -0.8344 0.4895 -0.2531
vn 0.5532 0.4895 -0.6741
vn 0.5532 0.4895 0.6741
vn -0.7690 0.4895 0.4111
vn -0.2531 0.4895 -0.8344
vn 0.8678 0.4895 0.0855
vn -0.2531 0.4895 0.8344
vn -0.7690 0.4895 -0.4111
vn 0.6741 0.4895 -0.5532
vn 0.4111 0.4895 0.7690
vn -0.8344 0.4895 0.2531
vn 0.0855 0.4895 -0.8678
vn -0.0855 0.4895 -0.8678
vn 0.8344 0.4895 0.2531
vn -0.4111 0.4895 0.7690
vn -0.6741 0.4895 -0.5532
vn 0.7690 0.4895 -0.4111
s off
f 2/1/1 3/2/1 1/3/1
f 4/4/2 5/5/2 3/2/2
f 6/6/3 7/7/3 5/5/3
f 8/8/4 9/9/4 7/7/4
f 10/10/5 11/11/5 9/9/5
f 12/12/6 13/13/6 11/11/6
f 14/14/7 15/15/7 13/13/7
f 16/16/8 17/17/8 15/15/8
f 18/18/9 19/19/9 17/17/9
f 20/20/10 21/21/10 19/19/10
f 22/22/11 23/23/11 21/21/11
f 24/24/12 25/25/12 23/23/12
f 26/26/13 27/27/13 25/25/13
f 28/28/14 29/29/14 27/27/14
f 30/30/15 31/31/15 29/29/15
f 32/32/16 33/33/16 31/31/16
f 34/34/17 35/35/17 33/33/17
f 36/36/18 37/37/18 35/35/18
f 38/38/19 39/39/19 37/37/19
f 40/40/20 41/41/20 39/39/20
f 42/42/21 43/43/21 41/41/21
f 44/44/22 45/45/22 43/43/22
f 46/46/23 47/47/23 45/45/23
f 48/48/24 49/49/24 47/47/24
f 50/50/25 51/51/25 49/49/25
f 52/52/26 53/53/26 51/51/26
f 54/54/27 55/55/27 53/53/27
f 56/56/28 57/57/28 55/55/28
f 58/58/29 59/59/29 57/57/29
f 60/60/30 61/61/30 59/59/30
f 30/30/31 80/62/31 32/32/31
f 62/63/32 63/64/32 61/61/32
f 64/65/33 1/66/33 63/64/33
f 31/67/34 47/68/34 63/69/34
f 83/70/35 75/71/35 67/72/35
f 48/48/36 89/73/36 50/50/36
f 4/4/37 67/74/37 6/6/37
f 22/22/38 76/75/38 24/24/38
f 40/40/39 85/76/39 42/42/39
f 60/60/40 93/77/40 94/78/40
f 14/14/41 72/79/41 16/16/41
f 32/32/42 81/80/42 34/34/42
f 52/52/43 89/73/43 90/81/43
f 6/6/44 68/82/44 8/8/44
f 24/24/45 77/83/45 26/26/45
f 44/44/46 85/76/46 86/84/46
f 60/60/47 95/85/47 62/63/47
f 16/16/48 73/86/48 18/18/48
f 36/36/49 81/80/49 82/87/49
f 52/52/50 91/88/50 54/54/50
f 8/8/51 69/89/51 10/10/51
f 28/28/52 77/83/52 78/90/52
f 44/44/53 87/91/53 46/46/53
f 62/63/54 96/92/54 64/65/54
f 20/20/55 73/86/55 74/93/55
f 36/36/56 83/94/56 38/38/56
f 54/54/57 92/95/57 56/56/57
f 12/12/58 69/89/58 70/96/58
f 28/28/59 79/97/59 30/30/59
f 46/46/60 88/98/60 48/48/60
f 4/4/61 65/99/61 66/100/61
f 64/65/62 65/101/62 2/102/62
f 20/20/63 75/103/63 22/22/63
f 38/38/64 84/104/64 40/40/64
f 56/56/65 93/77/65 58/58/65
f 12/12/66 71/105/66 14/14/66
f 2/1/1 4/4/1 3/2/1
f 4/4/2 6/6/2 5/5/2
f 6/6/3 8/8/3 7/7/3
f 8/8/4 10/10/4 9/9/4
f 10/10/5 12/12/5 11/11/5
f 12/12/6 14/14/6 13/13/6
f 14/14/7 16/16/7 15/15/7
f 16/16/8 18/18/8 17/17/8
f 18/18/9 20/20/9 19/19/9
f 20/20/10 22/22/10 21/21/10
f 22/22/11 24/24/11 23/23/11
f 24/24/12 26/26/12 25/25/12
f 26/26/13 28/28/13 27/27/13
f 28/28/14 30/30/14 29/29/14
f 30/30/15 32/32/15 31/31/15
f 32/32/16 34/34/16 33/33/16
f 34/34/17 36/36/17 35/35/17
f 36/36/18 38/38/18 37/37/18
f 38/38/19 40/40/19 39/39/19
f 40/40/20 42/42/20 41/41/20
f 42/42/21 44/44/21 43/43/21
f 44/44/22 46/46/22 45/45/22
f 46/46/23 48/48/23 47/47/23
f 48/48/24 50/50/24 49/49/24
f 50/50/25 52/52/25 51/51/25
f 52/52/26 54/54/26 53/53/26
f 54/54/27 56/56/27 55/55/27
f 56/56/28 58/58/28 57/57/28
f 58/58/29 60/60/29 59/59/29
f 60/60/30 62/63/30 61/61/30
f 30/30/31 79/97/31 80/62/31
f 62/63/32 64/65/32 63/64/32
f 64/65/33 2/102/33 1/66/33
f 63/69/34 1/106/34 3/107/34
f 3/107/34 5/108/34 7/109/34
f 7/109/34 9/110/34 11/111/34
f 11/111/34 13/112/34 15/113/34
f 15/113/34 17/114/34 19/115/34
f 19/115/34 21/116/34 23/117/34
f 23/117/34 25/118/34 27/119/34
f 27/119/34 29/120/34 31/67/34
f 31/67/34 33/121/34 35/122/34
f 35/122/34 37/123/34 39/124/34
f 39/124/34 41/125/34 43/126/34
f 43/126/34 45/127/34 47/68/34
f 47/68/34 49/128/34 51/129/34
f 51/129/34 53/130/34 55/131/34
f 55/131/34 57/132/34 59/133/34
f 59/133/34 61/134/34 63/69/34
f 63/69/34 3/107/34 15/113/34
f 3/107/34 7/109/34 15/113/34
f 7/109/34 11/111/34 15/113/34
f 15/113/34 19/115/34 31/67/34
f 19/115/34 23/117/34 31/67/34
f 23/117/34 27/119/34 31/67/34
f 31/67/34 35/122/34 47/68/34
f 35/122/34 39/124/34 47/68/34
f 39/124/34 43/126/34 47/68/34
f 47/68/34 51/129/34 63/69/34
f 51/129/34 55/131/34 63/69/34
f 55/131/34 59/133/34 63/69/34
f 63/69/34 15/113/34 31/67/34
f 67/72/35 66/135/35 65/136/35
f 65/136/35 96/137/35 67/72/35
f 96/137/35 95/138/35 67/72/35
f 95/138/35 94/139/35 91/140/35
f 94/139/35 93/141/35 91/140/35
f 93/141/35 92/142/35 91/140/35
f 91/140/35 90/143/35 87/144/35
f 90/143/35 89/145/35 87/144/35
f 89/145/35 88/146/35 87/144/35
f 87/144/35 86/147/35 83/70/35
f 86/147/35 85/148/35 83/70/35
f 85/148/35 84/149/35 83/70/35
f 83/70/35 82/150/35 79/151/35
f 82/150/35 81/152/35 79/151/35
f 81/152/35 80/153/35 79/151/35
f 79/151/35 78/154/35 75/71/35
f 78/154/35 77/155/35 75/71/35
f 77/155/35 76/156/35 75/71/35
f 75/71/35 74/157/35 73/158/35
f 73/158/35 72/159/35 75/71/35
f 72/159/35 71/160/35 75/71/35
f 71/160/35 70/161/35 67/72/35
f 70/161/35 69/162/35 67/72/35
f 69/162/35 68/163/35 67/72/35
f 67/72/35 95/138/35 91/140/35
f 91/140/35 87/144/35 83/70/35
f 83/70/35 79/151/35 75/71/35
f 75/71/35 71/160/35 67/72/35
f 67/72/35 91/140/35 83/70/35
f 48/48/36 88/98/36 89/73/36
f 4/4/37 66/100/37 67/74/37
f 22/22/38 75/103/38 76/75/38
f 40/40/39 84/104/39 85/76/39
f 60/60/40 58/58/40 93/77/40
f 14/14/41 71/105/41 72/79/41
f 32/32/42 80/62/42 81/80/42
f 52/52/43 50/50/43 89/73/43
f 6/6/44 67/74/44 68/82/44
f 24/24/45 76/75/45 77/83/45
f 44/44/46 42/42/46 85/76/46
f 60/60/47 94/78/47 95/85/47
f 16/16/48 72/79/48 73/86/48
f 36/36/49 34/34/49 81/80/49
f 52/52/50 90/81/50 91/88/50
f 8/8/51 68/82/51 69/89/51
f 28/28/52 26/26/52 77/83/52
f 44/44/53 86/84/53 87/91/53
f 62/63/54 95/85/54 96/92/54
f 20/20/55 18/18/55 73/86/55
f 36/36/56 82/87/56 83/94/56
f 54/54/57 91/88/57 92/95/57
f 12/12/58 10/10/58 69/89/58
f 28/28/59 78/90/59 79/97/59
f 46/46/60 87/91/60 88/98/60
f 4/4/61 2/1/61 65/99/61
f 64/65/62 96/92/62 65/101/62
f 20/20/63 74/93/63 75/103/63
f 38/38/64 83/94/64 84/104/64
f 56/56/65 92/95/65 93/77/65
f 12/12/66 70/96/66 71/105/66
