# Blender v3.3.1 OBJ File: ''
# www.blender.org
o Cube_Cube.001
v -1.250000 0.000000 -0.750000
v -1.250000 2.000000 -0.750000
v -1.250000 0.000000 -1.250000
v -1.250000 2.000000 -1.250000
v -0.750000 0.000000 -0.750000
v -0.750000 2.000000 -0.750000
v -0.750000 0.000000 -1.250000
v -0.750000 2.000000 -1.250000
v -1.250000 2.397377 -0.750000
v -1.250000 2.397377 -1.250000
v -0.750000 2.397377 -0.750000
v -0.750000 2.397377 -1.250000
v 1.238126 2.000000 -0.750000
v 1.238126 2.000000 -1.250000
v 1.238126 2.397377 -0.750000
v 1.238126 2.397377 -1.250000
v 0.750317 2.000000 -0.750000
v 0.750317 2.000000 -1.250000
v 0.750317 2.397377 -0.750000
v 0.750317 2.397377 -1.250000
v -1.250000 2.000000 1.237063
v -0.750000 2.000000 1.237063
v -1.250000 2.397377 1.237063
v -0.750000 2.397377 1.237063
v 1.238126 2.000000 1.237063
v 1.238126 2.397377 1.237063
v 0.750317 2.000000 1.237063
v 0.750317 2.397377 1.237063
v 0.750317 5.618232 -1.250000
v 0.750317 5.618232 -0.750000
v 1.238126 5.618232 -1.250000
v 1.238126 5.618232 -0.750000
v 1.238126 5.220855 -0.750000
v -1.250000 5.638818 -0.750000
v -1.250000 5.638818 -1.250000
v -0.750000 5.638818 -0.750000
v -0.750000 5.638818 -1.250000
v -1.250000 6.910162 -0.750000
v -1.250000 6.910162 -1.250000
v -0.750000 6.910162 -0.750000
v -0.750000 6.910162 -1.250000
v 0.750317 6.891447 -1.250000
v 0.750317 6.891447 -0.750000
v 1.238126 6.891447 -1.250000
v 1.238126 6.891447 -0.750000
v 0.695216 5.638818 -0.750000
v 0.695216 5.638818 -1.250000
v 0.695216 6.910162 -0.750000
v 0.695216 6.910162 -1.250000
v 0.333632 5.638818 -0.751264
v 0.833632 5.638818 -0.751264
v 0.833632 5.638818 -1.251264
v 0.833632 6.910162 -0.751264
v 0.833632 6.910162 -1.251264
v -1.250000 0.000000 1.250000
v -1.250000 2.000000 1.250000
v -1.250000 0.000000 0.750000
v -1.250000 2.000000 0.750000
v -0.750000 0.000000 1.250000
v -0.750000 2.000000 1.250000
v -0.750000 0.000000 0.750000
v -0.750000 2.000000 0.750000
v 0.750000 0.000000 -0.750000
v 0.750000 2.000000 -0.750000
v 0.750000 0.000000 -1.250000
v 0.750000 2.000000 -1.250000
v 1.250000 0.000000 -0.750000
v 1.250000 2.000000 -0.750000
v 1.250000 0.000000 -1.250000
v 1.250000 2.000000 -1.250000
v 0.750000 0.000000 1.250000
v 0.750000 2.000000 1.250000
v 0.750000 0.000000 0.750000
v 0.750000 2.000000 0.750000
v 1.250000 0.000000 1.250000
v 1.250000 2.000000 1.250000
v 1.250000 0.000000 0.750000
v 1.250000 2.000000 0.750000
v -0.346810 2.348126 -1.268206
v -0.346810 5.578301 -1.268206
v -0.346810 2.348126 -0.752368
v -0.346810 5.578301 -0.752368
v 0.346810 2.348126 -1.268206
v 0.346810 5.578301 -1.268206
v 0.346810 2.348126 -0.752368
v 0.346810 5.578301 -0.752368
vt 0.625000 0.000000
vt 0.375000 0.250000
vt 0.375000 0.000000
vt 0.625000 0.250000
vt 0.375000 0.500000
vt 0.625000 0.500000
vt 0.375000 0.750000
vt 0.625000 0.750000
vt 0.375000 1.000000
vt 0.125000 0.750000
vt 0.125000 0.500000
vt 0.625000 0.500000
vt 0.625000 0.750000
vt 0.625000 0.750000
vt 0.625000 0.500000
vt 0.625000 0.250000
vt 0.625000 0.000000
vt 0.625000 0.000000
vt 0.625000 0.500000
vt 0.625000 0.500000
vt 0.625000 0.750000
vt 0.625000 0.750000
vt 0.625000 0.750000
vt 0.625000 0.750000
vt 0.625000 0.750000
vt 0.625000 0.500000
vt 0.625000 0.750000
vt 0.625000 1.000000
vt 0.625000 1.000000
vt 0.625000 0.750000
vt 0.625000 0.750000
vt 0.625000 0.750000
vt 0.875000 0.750000
vt 0.625000 0.750000
vt 0.625000 1.000000
vt 0.625000 0.750000
vt 0.625000 0.500000
vt 0.625000 0.500000
vt 0.625000 0.750000
vt 0.625000 0.750000
vt 0.875000 0.750000
vt 0.875000 0.750000
vt 0.625000 0.250000
vt 0.625000 0.500000
vt 0.875000 0.500000
vt 0.625000 0.750000
vt 0.625000 0.500000
vt 0.625000 0.750000
vt 0.625000 0.000000
vt 0.625000 0.250000
vt 0.625000 0.750000
vt 0.625000 0.500000
vt 0.625000 0.500000
vt 0.625000 0.500000
vt 0.625000 0.750000
vt 0.625000 0.500000
vt 0.875000 0.750000
vt 0.625000 0.750000
vt 0.625000 0.750000
vt 0.625000 0.500000
vt 0.625000 0.500000
vt 0.625000 0.000000
vt 0.375000 0.250000
vt 0.375000 0.000000
vt 0.625000 0.250000
vt 0.375000 0.500000
vt 0.625000 0.500000
vt 0.375000 0.750000
vt 0.625000 0.750000
vt 0.375000 1.000000
vt 0.125000 0.750000
vt 0.125000 0.500000
vt 0.875000 0.500000
vt 0.625000 0.000000
vt 0.375000 0.250000
vt 0.375000 0.000000
vt 0.625000 0.250000
vt 0.375000 0.500000
vt 0.625000 0.500000
vt 0.375000 0.750000
vt 0.625000 0.750000
vt 0.375000 1.000000
vt 0.125000 0.750000
vt 0.125000 0.500000
vt 0.875000 0.500000
vt 0.625000 0.000000
vt 0.375000 0.250000
vt 0.375000 0.000000
vt 0.625000 0.250000
vt 0.375000 0.500000
vt 0.625000 0.500000
vt 0.375000 0.750000
vt 0.625000 0.750000
vt 0.375000 1.000000
vt 0.125000 0.750000
vt 0.125000 0.500000
vt 0.875000 0.500000
vt 0.625000 0.000000
vt 0.375000 0.250000
vt 0.375000 0.000000
vt 0.625000 0.250000
vt 0.375000 0.500000
vt 0.625000 0.500000
vt 0.375000 0.750000
vt 0.625000 0.750000
vt 0.375000 1.000000
vt 0.125000 0.750000
vt 0.125000 0.500000
vt 0.875000 0.500000
vt 0.625000 0.000000
vt 0.875000 0.750000
vt 0.625000 0.000000
vt 0.625000 1.000000
vt 0.875000 0.750000
vt 0.625000 1.000000
vt 0.875000 0.750000
vt 0.625000 1.000000
vt 0.875000 0.750000
vt 0.625000 1.000000
vt 0.875000 0.750000
vn -1.0000 0.0000 0.0000
vn 0.0000 0.0000 -1.0000
vn 1.0000 0.0000 0.0000
vn 0.0000 0.0000 1.0000
vn 0.0000 -1.0000 0.0000
vn 0.0000 1.0000 0.0000
vn 0.0000 1.0000 0.0030
vn -0.0008 0.0000 -1.0000
vn 0.0008 0.0000 1.0000
vn 0.0000 1.0000 -0.0015
s off
f 2/1/1 3/2/1 1/3/1
f 4/4/2 7/5/2 3/2/2
f 8/6/3 5/7/3 7/5/3
f 6/8/4 1/9/4 5/7/4
f 7/5/5 1/10/5 3/11/5
f 4/4/2 12/12/2 8/6/2
f 12/12/3 36/13/3 11/14/3
f 11/14/6 16/15/6 12/12/6
f 2/1/1 10/16/1 4/4/1
f 2/1/1 23/17/1 9/18/1
f 16/15/4 18/19/4 14/20/4
f 8/6/5 13/21/5 6/8/5
f 12/12/2 14/20/2 8/6/2
f 17/22/6 25/23/6 13/21/6
f 18/19/3 19/24/3 17/22/3
f 14/20/6 17/22/6 13/21/6
f 13/21/5 22/25/5 6/8/5
f 20/26/3 30/27/3 19/24/3
f 22/25/4 23/28/4 21/29/4
f 22/25/4 26/30/4 24/31/4
f 25/23/2 28/32/2 26/30/2
f 9/33/6 24/31/6 11/14/6
f 15/34/5 28/32/5 19/24/5
f 11/14/6 26/30/6 15/34/6
f 6/8/5 21/29/5 2/35/5
f 19/24/3 27/36/3 17/22/3
f 15/34/1 31/37/1 16/15/1
f 29/38/3 43/39/3 30/27/3
f 19/24/2 32/40/2 15/34/2
f 16/15/4 29/38/4 20/26/4
f 36/13/4 38/41/4 34/42/4
f 9/18/1 35/43/1 10/16/1
f 11/14/4 34/42/4 9/33/4
f 10/16/2 37/44/2 12/12/2
f 39/45/6 40/46/6 41/47/6
f 35/43/2 41/47/2 37/44/2
f 36/13/4 48/48/4 40/46/4
f 34/49/1 39/50/1 35/43/1
f 45/51/5 42/52/5 44/53/5
f 32/40/1 44/53/1 31/37/1
f 31/37/4 42/52/4 29/38/4
f 30/27/2 45/51/2 32/40/2
f 47/54/3 48/48/3 46/55/3
f 40/46/6 49/56/6 41/47/6
f 41/47/2 47/54/2 37/44/2
f 37/44/5 46/55/5 36/13/5
f 36/13/7 50/57/7 34/42/7
f 40/46/8 51/58/8 36/13/8
f 41/47/5 53/59/5 40/46/5
f 37/44/9 54/60/9 41/47/9
f 37/44/6 51/58/6 52/61/6
f 56/62/1 57/63/1 55/64/1
f 58/65/2 61/66/2 57/63/2
f 62/67/3 59/68/3 61/66/3
f 60/69/4 55/70/4 59/68/4
f 61/66/5 55/71/5 57/72/5
f 58/73/6 60/69/6 62/67/6
f 64/74/1 65/75/1 63/76/1
f 66/77/2 69/78/2 65/75/2
f 70/79/3 67/80/3 69/78/3
f 68/81/4 63/82/4 67/80/4
f 69/78/5 63/83/5 65/84/5
f 66/85/6 68/81/6 70/79/6
f 72/86/1 73/87/1 71/88/1
f 74/89/2 77/90/2 73/87/2
f 78/91/3 75/92/3 77/90/3
f 76/93/4 71/94/4 75/92/4
f 77/90/5 71/95/5 73/96/5
f 74/97/6 76/93/6 78/91/6
f 80/98/3 81/99/3 79/100/3
f 82/101/2 85/102/2 81/99/2
f 86/103/1 83/104/1 85/102/1
f 84/105/4 79/106/4 83/104/4
f 85/102/6 79/107/6 81/108/6
f 82/109/5 84/105/5 86/103/5
f 2/1/1 4/4/1 3/2/1
f 4/4/2 8/6/2 7/5/2
f 8/6/3 6/8/3 5/7/3
f 6/8/4 2/35/4 1/9/4
f 7/5/5 5/7/5 1/10/5
f 4/4/2 10/16/2 12/12/2
f 12/12/3 37/44/3 36/13/3
f 11/14/6 15/34/6 16/15/6
f 2/1/1 9/18/1 10/16/1
f 2/1/1 21/110/1 23/17/1
f 16/15/4 20/26/4 18/19/4
f 8/6/5 14/20/5 13/21/5
f 12/12/2 16/15/2 14/20/2
f 17/22/6 27/36/6 25/23/6
f 18/19/3 20/26/3 19/24/3
f 14/20/6 18/19/6 17/22/6
f 13/21/5 25/23/5 22/25/5
f 20/26/3 29/38/3 30/27/3
f 22/25/4 24/31/4 23/28/4
f 22/25/4 25/23/4 26/30/4
f 25/23/2 27/36/2 28/32/2
f 9/33/6 23/111/6 24/31/6
f 15/34/5 26/30/5 28/32/5
f 11/14/6 24/31/6 26/30/6
f 6/8/5 22/25/5 21/29/5
f 19/24/3 28/32/3 27/36/3
f 15/34/1 32/40/1 31/37/1
f 29/38/3 42/52/3 43/39/3
f 19/24/2 30/27/2 32/40/2
f 16/15/4 31/37/4 29/38/4
f 36/13/4 40/46/4 38/41/4
f 9/18/1 34/49/1 35/43/1
f 11/14/4 36/13/4 34/42/4
f 10/16/2 35/43/2 37/44/2
f 39/45/6 38/41/6 40/46/6
f 35/43/2 39/50/2 41/47/2
f 36/13/4 46/55/4 48/48/4
f 34/49/1 38/112/1 39/50/1
f 45/51/5 43/39/5 42/52/5
f 32/40/1 45/51/1 44/53/1
f 31/37/4 44/53/4 42/52/4
f 30/27/2 43/39/2 45/51/2
f 47/54/3 49/56/3 48/48/3
f 40/46/6 48/48/6 49/56/6
f 41/47/2 49/56/2 47/54/2
f 37/44/5 47/54/5 46/55/5
f 36/13/10 51/58/10 50/57/10
f 40/46/8 53/59/8 51/58/8
f 41/47/5 54/60/5 53/59/5
f 37/44/9 52/61/9 54/60/9
f 37/44/6 36/13/6 51/58/6
f 56/62/1 58/65/1 57/63/1
f 58/65/2 62/67/2 61/66/2
f 62/67/3 60/69/3 59/68/3
f 60/69/4 56/113/4 55/70/4
f 61/66/5 59/68/5 55/71/5
f 58/73/6 56/114/6 60/69/6
f 64/74/1 66/77/1 65/75/1
f 66/77/2 70/79/2 69/78/2
f 70/79/3 68/81/3 67/80/3
f 68/81/4 64/115/4 63/82/4
f 69/78/5 67/80/5 63/83/5
f 66/85/6 64/116/6 68/81/6
f 72/86/1 74/89/1 73/87/1
f 74/89/2 78/91/2 77/90/2
f 78/91/3 76/93/3 75/92/3
f 76/93/4 72/117/4 71/94/4
f 77/90/5 75/92/5 71/95/5
f 74/97/6 72/118/6 76/93/6
f 80/98/3 82/101/3 81/99/3
f 82/101/2 86/103/2 85/102/2
f 86/103/1 84/105/1 83/104/1
f 84/105/4 80/119/4 79/106/4
f 85/102/6 83/104/6 79/107/6
f 82/109/5 80/120/5 84/105/5
l 13 33
