# Blender v3.3.1 OBJ File: ''
# www.blender.org
o Cube
v 3.000000 5.000000 -5.000000
v 3.000000 0.000000 -5.000000
v 3.000000 5.000000 5.000000
v 3.000000 0.000000 5.000000
v -3.000000 5.000000 -5.000000
v -3.000000 0.000000 -5.000000
v -3.000000 5.000000 5.000000
v -3.000000 0.000000 5.000000
v 0.247964 7.082808 -0.413273
v 0.247964 7.082808 0.413273
v -0.247964 7.082808 -0.413273
v -0.247964 7.082808 0.413273
v 3.000000 3.933539 -3.674538
v 3.000000 0.101917 -3.712813
v 3.000000 3.865594 3.643450
v 3.000000 0.101917 3.643450
vt 0.625000 0.750000
vt 0.625000 1.000000
vt 0.625000 1.000000
vt 0.375000 1.000000
vt 0.375000 0.750000
vt 0.625000 0.000000
vt 0.375000 0.250000
vt 0.375000 0.000000
vt 0.375000 0.500000
vt 0.125000 0.750000
vt 0.125000 0.500000
vt 0.625000 0.500000
vt 0.375000 0.500000
vt 0.625000 0.250000
vt 0.875000 0.500000
vt 0.625000 0.750000
vt 0.625000 0.500000
vt 0.625000 0.250000
vt 0.625000 0.500000
vt 0.375000 0.750000
vt 0.625000 0.750000
vt 0.875000 0.750000
vt 0.625000 0.000000
vn 0.0000 0.9105 0.4135
vn 0.0000 0.0000 1.0000
vn -1.0000 0.0000 0.0000
vn 0.0000 -1.0000 0.0000
vn 1.0000 0.0000 0.0000
vn 0.0000 0.0000 -1.0000
vn 0.0000 1.0000 0.0000
vn -0.6035 0.7974 0.0000
vn 0.6035 0.7974 0.0000
vn 0.0000 0.9105 -0.4135
s off
f 3/1/1 12/2/1 7/3/1
f 3/1/2 8/4/2 4/5/2
f 7/6/3 6/7/3 8/8/3
f 2/9/4 8/10/4 6/11/4
f 2/9/5 13/12/5 14/13/5
f 5/14/6 2/9/6 6/7/6
f 11/15/7 10/16/7 9/17/7
f 7/6/8 11/18/8 5/14/8
f 1/19/9 10/16/9 3/1/9
f 5/14/10 9/17/10 1/19/10
f 2/9/5 16/20/5 4/5/5
f 3/1/5 13/12/5 1/19/5
f 4/5/5 15/21/5 3/1/5
f 3/1/1 10/16/1 12/2/1
f 3/1/2 7/3/2 8/4/2
f 7/6/3 5/14/3 6/7/3
f 2/9/4 4/5/4 8/10/4
f 2/9/5 1/19/5 13/12/5
f 5/14/6 1/19/6 2/9/6
f 11/15/7 12/22/7 10/16/7
f 7/6/8 12/23/8 11/18/8
f 1/19/9 9/17/9 10/16/9
f 5/14/10 11/18/10 9/17/10
f 2/9/5 14/13/5 16/20/5
f 3/1/5 15/21/5 13/12/5
f 4/5/5 16/20/5 15/21/5
